<svg width="30" height="25" viewBox="0 0 30 25" fill="none" xmlns="http://www.w3.org/2000/svg">
<path d="M11.5957 14.6865C4.77527 15.5068 3.34622 20.9912 3.34622 22.9166H1.39422C1.39422 22.9166 0 22.9166 0 21.1805C0 19.4444 1.39422 14.236 8.36555 14.236C9.61283 14.236 10.6815 14.4027 11.5957 14.6865Z" fill="white"/>
<path d="M9.50744 2.28115C8.77239 3.39456 8.36555 4.79617 8.36555 6.24997C8.36555 7.90758 8.89442 9.49728 9.83565 10.6694C10.1138 11.0157 10.4212 11.3172 10.7507 11.5702C10.0552 12.1714 9.22396 12.4999 8.36555 12.4999C7.25624 12.4999 6.19226 11.9512 5.40789 10.9745C4.62342 9.99771 4.18278 8.67296 4.18278 7.29164C4.18278 5.91031 4.62342 4.58556 5.40789 3.60882C6.19226 2.63207 7.25624 2.08332 8.36555 2.08332C8.75513 2.08332 9.1392 2.151 9.50744 2.28115Z" fill="white"/>
<path d="M18.4042 14.6865C25.2246 15.5069 26.6537 20.9912 26.6537 22.9166H28.6056C28.6056 22.9166 29.9999 22.9166 29.9999 21.1805C29.9999 19.4444 28.6056 14.2361 21.6343 14.2361C20.3871 14.2361 19.3184 14.4028 18.4042 14.6865Z" fill="white"/>
<path d="M20.4924 2.28115C21.2275 3.39457 21.6343 4.79616 21.6343 6.24997C21.6343 7.90757 21.1055 9.49727 20.1642 10.6694C19.886 11.0157 19.5786 11.3172 19.2491 11.5702C19.9447 12.1714 20.7759 12.4999 21.6343 12.4999C22.7437 12.4999 23.8076 11.9512 24.592 10.9745C25.3764 9.99772 25.8171 8.67297 25.8171 7.29164C25.8171 5.91031 25.3764 4.58555 24.592 3.6088C23.8076 2.63206 22.7437 2.08332 21.6343 2.08332C21.2447 2.08332 20.8607 2.15101 20.4924 2.28115Z" fill="white"/>
<path d="M6.69244 24.9999C6.69244 24.9999 5.01933 24.9999 5.01933 22.9166C5.01933 20.8332 6.69244 14.5833 15.058 14.5833C23.4235 14.5833 25.0967 20.8332 25.0967 22.9166C25.0967 24.9999 23.4235 24.9999 23.4235 24.9999H6.69244ZM15.058 12.4999C16.3892 12.4999 17.6659 11.8415 18.6072 10.6694C19.5485 9.49727 20.0773 7.90757 20.0773 6.24997C20.0773 4.59238 19.5485 3.00267 18.6072 1.83058C17.6659 0.658478 16.3892 0 15.058 0C13.7268 0 12.4501 0.658478 11.5088 1.83058C10.5675 3.00267 10.0387 4.59238 10.0387 6.24997C10.0387 7.90757 10.5675 9.49727 11.5088 10.6694C12.4501 11.8415 13.7268 12.4999 15.058 12.4999Z" fill="white"/>
</svg>
