<svg width="21" height="21" viewBox="0 0 21 21" fill="none" xmlns="http://www.w3.org/2000/svg">
<path d="M8.38162 5.52011e-07C7.06979 0.000701569 5.77642 0.309083 4.60546 0.900359C3.4345 1.49164 2.41862 2.34931 1.63946 3.40446C0.8603 4.45961 0.339597 5.68279 0.119201 6.9757C-0.101194 8.26861 -0.0151348 9.59518 0.370463 10.8488C0.756061 12.1024 1.43044 13.2481 2.3394 14.1938C3.24836 15.1394 4.36655 15.8587 5.6041 16.2938C6.84164 16.7289 8.16402 16.8677 9.46495 16.699C10.7659 16.5302 12.0091 16.0587 13.0946 15.3223L18.2772 20.4996C18.4212 20.6541 18.5948 20.778 18.7876 20.8639C18.9805 20.9498 19.1887 20.996 19.3999 20.9998C19.611 21.0035 19.8207 20.9646 20.0165 20.8856C20.2123 20.8065 20.3901 20.6888 20.5395 20.5396C20.6888 20.3903 20.8065 20.2125 20.8856 20.0167C20.9646 19.821 21.0035 19.6113 20.9998 19.4002C20.996 19.1891 20.9498 18.981 20.8639 18.7881C20.7779 18.5953 20.654 18.4217 20.4995 18.2778L15.3211 13.0963C16.1778 11.8357 16.6747 10.3654 16.7582 8.84364C16.8417 7.32185 16.5087 5.80609 15.7951 4.45933C15.0815 3.11256 14.0142 1.98575 12.708 1.20004C11.4017 0.41433 9.90602 -0.000552403 8.38162 5.52011e-07ZM3.14031 8.38431C3.14031 6.99453 3.69252 5.66166 4.67545 4.67894C5.65839 3.69621 6.99154 3.14412 8.38162 3.14412C9.7717 3.14412 11.1049 3.69621 12.0878 4.67894C13.0707 5.66166 13.6229 6.99453 13.6229 8.38431C13.6229 9.7741 13.0707 11.107 12.0878 12.0897C11.1049 13.0724 9.7717 13.6245 8.38162 13.6245C6.99154 13.6245 5.65839 13.0724 4.67545 12.0897C3.69252 11.107 3.14031 9.7741 3.14031 8.38431Z" fill="#75839D"/>
</svg>
