<svg width="22" height="29" viewBox="0 0 22 29" fill="none" xmlns="http://www.w3.org/2000/svg">
<path d="M12.1386 2.49717C13.9117 0.0121151 16.3767 0 16.3767 0C16.3767 0 16.7434 2.33637 14.9819 4.58705C13.1011 6.99026 10.9632 6.59702 10.9632 6.59702C10.9632 6.59702 10.5618 4.70697 12.1386 2.49717ZM11.1888 8.23364C12.1009 8.23364 13.7939 6.90032 15.9975 6.90032C19.7907 6.90032 21.2829 9.77037 21.2829 9.77037C21.2829 9.77037 18.3644 11.3571 18.3644 15.2071C18.3644 19.5503 22 21.0471 22 21.0471C22 21.0471 19.4586 28.6535 16.0258 28.6535C14.4491 28.6535 13.2233 27.5237 11.562 27.5237C9.86908 27.5237 8.18907 28.6957 7.09487 28.6957C3.96019 28.6958 0 21.4803 0 15.6802C0 9.97378 3.35204 6.98027 6.49612 6.98027C8.54005 6.98027 10.1262 8.23364 11.1888 8.23364Z" fill="#555555"/>
</svg>
