<svg width="20" height="20" viewBox="0 0 20 20" fill="none" xmlns="http://www.w3.org/2000/svg">
<path d="M18.2662 9.66667C16.5829 5.75834 13.4162 3.33334 9.99957 3.33334C6.5829 3.33334 3.41623 5.75834 1.7329 9.66667C1.68701 9.77181 1.66333 9.88529 1.66333 10C1.66333 10.1147 1.68701 10.2282 1.7329 10.3333C3.41623 14.2417 6.5829 16.6667 9.99957 16.6667C13.4162 16.6667 16.5829 14.2417 18.2662 10.3333C18.3121 10.2282 18.3358 10.1147 18.3358 10C18.3358 9.88529 18.3121 9.77181 18.2662 9.66667ZM9.99957 15C7.3579 15 4.8579 13.0917 3.41623 10C4.8579 6.90834 7.3579 5 9.99957 5C12.6412 5 15.1412 6.90834 16.5829 10C15.1412 13.0917 12.6412 15 9.99957 15ZM9.99957 6.66667C9.3403 6.66667 8.69583 6.86217 8.14767 7.22844C7.5995 7.59471 7.17226 8.1153 6.91997 8.72439C6.66768 9.33348 6.60167 10.0037 6.73028 10.6503C6.8589 11.2969 7.17637 11.8909 7.64254 12.357C8.10872 12.8232 8.70266 13.1407 9.34927 13.2693C9.99587 13.3979 10.6661 13.3319 11.2752 13.0796C11.8843 12.8273 12.4049 12.4001 12.7711 11.8519C13.1374 11.3037 13.3329 10.6593 13.3329 10C13.3329 9.11595 12.9817 8.2681 12.3566 7.64298C11.7315 7.01786 10.8836 6.66667 9.99957 6.66667ZM9.99957 11.6667C9.66993 11.6667 9.3477 11.5689 9.07362 11.3858C8.79954 11.2026 8.58591 10.9424 8.45977 10.6378C8.33362 10.3333 8.30062 9.99815 8.36492 9.67485C8.42923 9.35155 8.58797 9.05458 8.82106 8.82149C9.05414 8.5884 9.35112 8.42967 9.67442 8.36536C9.99772 8.30105 10.3328 8.33406 10.6374 8.4602C10.9419 8.58635 11.2022 8.79997 11.3853 9.07405C11.5685 9.34813 11.6662 9.67037 11.6662 10C11.6662 10.442 11.4906 10.866 11.1781 11.1785C10.8655 11.4911 10.4416 11.6667 9.99957 11.6667Z" fill="#BAC1CE"/>
</svg>
