<svg width="20" height="20" viewBox="0 0 20 20" fill="none" xmlns="http://www.w3.org/2000/svg">
<path d="M9.5475 16.25V4.58628H7.975V9.52503H2.19875V4.58753H0.625V16.25H2.1975V10.91H7.9725V16.25H9.54625H9.5475ZM13.325 7.83378V7.77378C13.325 6.66253 14.1125 5.68878 15.47 5.68878C16.6663 5.68878 17.5637 6.44878 17.5637 7.65378C17.5637 8.72254 16.8713 9.53379 16.23 10.26L11.8387 15.2588V16.25H19.375V14.8825H14.0688V14.7888L17.17 11.2338C18.2638 9.98629 19.1525 9.00378 19.1525 7.54253C19.1525 5.71378 17.7087 4.34753 15.5037 4.34753C13.0775 4.34753 11.7963 6.00503 11.7963 7.77253V7.83378H13.325Z" fill="#979FA5"/>
</svg>
