<svg width="22" height="22" viewBox="0 0 22 22" fill="none" xmlns="http://www.w3.org/2000/svg">
<path d="M11.0407 17.0651L19.3676 4.5899C19.4637 4.44593 19.5199 4.27745 19.5303 4.10271C19.5406 3.92796 19.5047 3.75361 19.4263 3.59853C19.348 3.44345 19.2303 3.31355 19.0859 3.2229C18.9415 3.13225 18.7759 3.0843 18.6071 3.08424H1.95316C1.78429 3.08412 1.61861 3.13195 1.47407 3.22253C1.32953 3.31311 1.21165 3.443 1.13321 3.59811C1.05476 3.75322 1.01875 3.92764 1.02906 4.10247C1.03937 4.2773 1.09562 4.44586 1.19171 4.5899L9.51867 17.0651C9.60419 17.1922 9.71804 17.296 9.85053 17.3677C9.98302 17.4393 10.1302 17.4768 10.2797 17.4768C10.4291 17.4768 10.5763 17.4393 10.7088 17.3677C10.8413 17.296 10.9551 17.1922 11.0407 17.0651Z" fill="#D13329"/>
</svg>
