<svg width="48" height="12" viewBox="0 0 48 12" fill="none" xmlns="http://www.w3.org/2000/svg">
<path d="M0 1.77512H1.87606V8.51748H5.34936V10.2256H0V1.77512ZM6.17879 4.49593H7.98114V10.2225H6.17879V4.49593ZM7.07994 1.64898C7.65344 1.64908 8.12532 2.11469 8.12532 2.68052C8.12532 3.2464 7.65334 3.71206 7.07978 3.71206C6.50622 3.71206 6.03424 3.2464 6.03424 2.68052C6.03424 2.11464 6.50638 1.64898 7.07994 1.64898ZM15.5205 1.77383H17.3228V6.82408L19.3655 4.49335H21.5752L19.2097 7.14454L21.5255 10.2249H19.2602L17.3469 7.3942H17.3232V10.2245H15.5209L15.5205 1.77383ZM8.98049 4.49652H10.7113V5.2791H10.7359C11.0876 4.6845 11.7451 4.32813 12.4425 4.35406C14.2702 4.35406 14.6066 5.54046 14.6066 7.08174V10.2221H12.8042V7.43795C12.8042 6.77335 12.7919 5.91906 11.8655 5.91906C10.9287 5.91906 10.7841 6.64275 10.7841 7.38958V10.2214H8.98179L8.98049 4.49652Z" fill="#0A66C2"/>
<path d="M25.3708 6.69315C25.371 6.68478 25.3711 6.67635 25.3711 6.66798C25.3711 6.0831 24.8833 5.60182 24.2905 5.60182C24.2817 5.60182 24.273 5.60192 24.2643 5.60214C23.6133 5.56215 23.0419 6.05159 22.9906 6.69315H25.3708ZM26.8976 9.23076C26.2914 9.95596 25.3855 10.3747 24.4329 10.3701C22.6305 10.3701 21.1875 9.18314 21.1875 7.34513C21.1875 5.50713 22.6304 4.32072 24.4329 4.32072C26.1175 4.32072 27.1739 5.50616 27.1739 7.34513V7.90269H22.9906C23.0978 8.55349 23.6808 9.03199 24.3489 9.0176C24.8696 9.01438 25.3546 8.75055 25.6351 8.31779L26.8976 9.23076ZM30.9306 5.88014C30.0295 5.88014 29.4888 6.47382 29.4888 7.33885C29.4888 8.20389 30.0293 8.79805 30.9306 8.79805C31.832 8.79805 32.3738 8.20533 32.3738 7.33885C32.3738 6.47232 31.8329 5.88014 30.9306 5.88014ZM34.0331 10.2214H32.3738V9.46195H32.3493C31.9276 10.0214 31.2641 10.3554 30.5574 10.3636C28.8257 10.3636 27.6849 9.13054 27.6849 7.38679C27.6849 5.78534 28.6945 4.31476 30.3539 4.31476C31.0998 4.31476 31.7965 4.51611 32.2052 5.07421H32.2289V1.77324H34.0329L34.0331 10.2214ZM46.2005 10.2247H44.3982V7.43999C44.3982 6.77593 44.3862 5.9211 43.4608 5.9211C42.5221 5.9211 42.3784 6.64458 42.3784 7.39162V10.2245H40.5762V4.49797H42.3064V5.28055H42.3306C42.6829 4.68627 43.3404 4.33001 44.0378 4.35556C45.8645 4.35556 46.2013 5.541 46.2013 7.08324L46.2005 10.2247ZM38.5425 3.71517C37.9688 3.71517 37.4964 3.2494 37.4964 2.68331C37.4964 2.11721 37.9685 1.65139 38.5423 1.65139C39.116 1.65139 39.5881 2.11711 39.5882 2.68309C39.5882 3.24908 39.1162 3.71512 38.5425 3.71517ZM39.4437 10.2247H37.6395V4.49797H39.4437V10.2247ZM47.099 7.61656e-05H36.7338C36.2472 -0.00534537 35.8421 0.385005 35.8362 0.865053V11.134C35.8419 11.6143 36.2469 12.0051 36.7338 11.9999H47.099C47.587 12.006 47.9935 11.6153 48 11.134V0.864355C47.9935 0.383287 47.5865 -0.00625791 47.099 7.61656e-05Z" fill="#0A66C2"/>
</svg>
