<svg width="20" height="20" viewBox="0 0 20 20" fill="none" xmlns="http://www.w3.org/2000/svg">
<path fill-rule="evenodd" clip-rule="evenodd" d="M6.24981 14.375C6.24981 14.2092 6.31566 14.0502 6.43287 13.933C6.55008 13.8158 6.70905 13.75 6.87481 13.75H18.1248C18.2906 13.75 18.4495 13.8158 18.5668 13.933C18.684 14.0502 18.7498 14.2092 18.7498 14.375C18.7498 14.5407 18.684 14.6997 18.5668 14.8169C18.4495 14.9341 18.2906 15 18.1248 15H6.87481C6.70905 15 6.55008 14.9341 6.43287 14.8169C6.31566 14.6997 6.24981 14.5407 6.24981 14.375ZM6.24981 9.37496C6.24981 9.2092 6.31566 9.05023 6.43287 8.93302C6.55008 8.81581 6.70905 8.74996 6.87481 8.74996H18.1248C18.2906 8.74996 18.4495 8.81581 18.5668 8.93302C18.684 9.05023 18.7498 9.2092 18.7498 9.37496C18.7498 9.54072 18.684 9.69969 18.5668 9.8169C18.4495 9.93411 18.2906 9.99996 18.1248 9.99996H6.87481C6.70905 9.99996 6.55008 9.93411 6.43287 9.8169C6.31566 9.69969 6.24981 9.54072 6.24981 9.37496ZM6.24981 4.37496C6.24981 4.2092 6.31566 4.05023 6.43287 3.93302C6.55008 3.81581 6.70905 3.74996 6.87481 3.74996H18.1248C18.2906 3.74996 18.4495 3.81581 18.5668 3.93302C18.684 4.05023 18.7498 4.2092 18.7498 4.37496C18.7498 4.54072 18.684 4.69969 18.5668 4.8169C18.4495 4.93411 18.2906 4.99996 18.1248 4.99996H6.87481C6.70905 4.99996 6.55008 4.93411 6.43287 4.8169C6.31566 4.69969 6.24981 4.54072 6.24981 4.37496ZM4.81731 2.68246C4.87552 2.74051 4.9217 2.80948 4.9532 2.88542C4.98471 2.96135 5.00093 3.04275 5.00093 3.12496C5.00093 3.20717 4.98471 3.28857 4.9532 3.3645C4.9217 3.44043 4.87552 3.5094 4.81731 3.56746L2.94231 5.44246C2.88426 5.50066 2.81529 5.54684 2.73935 5.57835C2.66342 5.60986 2.58202 5.62608 2.49981 5.62608C2.4176 5.62608 2.3362 5.60986 2.26027 5.57835C2.18434 5.54684 2.11537 5.50066 2.05731 5.44246L1.43231 4.81746C1.3742 4.75935 1.32811 4.69036 1.29666 4.61444C1.26521 4.53851 1.24902 4.45714 1.24902 4.37496C1.24902 4.29278 1.26521 4.2114 1.29666 4.13548C1.32811 4.05955 1.3742 3.99057 1.43231 3.93246C1.49042 3.87435 1.55941 3.82825 1.63533 3.7968C1.71126 3.76535 1.79263 3.74917 1.87481 3.74917C1.95699 3.74917 2.03837 3.76535 2.11429 3.7968C2.19022 3.82825 2.2592 3.87435 2.31731 3.93246L2.49981 4.11621L3.93231 2.68246C3.99037 2.62425 4.05934 2.57808 4.13527 2.54657C4.2112 2.51506 4.2926 2.49884 4.37481 2.49884C4.45702 2.49884 4.53842 2.51506 4.61435 2.54657C4.69029 2.57808 4.75926 2.62425 4.81731 2.68246ZM4.81731 7.68246C4.87552 7.74051 4.9217 7.80948 4.9532 7.88542C4.98471 7.96135 5.00093 8.04275 5.00093 8.12496C5.00093 8.20717 4.98471 8.28857 4.9532 8.3645C4.9217 8.44043 4.87552 8.5094 4.81731 8.56746L2.94231 10.4425C2.88426 10.5007 2.81529 10.5468 2.73935 10.5783C2.66342 10.6099 2.58202 10.6261 2.49981 10.6261C2.4176 10.6261 2.3362 10.6099 2.26027 10.5783C2.18434 10.5468 2.11537 10.5007 2.05731 10.4425L1.43231 9.81746C1.31495 9.7001 1.24902 9.54093 1.24902 9.37496C1.24902 9.20899 1.31495 9.04982 1.43231 8.93246C1.54967 8.8151 1.70884 8.74917 1.87481 8.74917C2.04078 8.74917 2.19995 8.8151 2.31731 8.93246L2.49981 9.11621L3.93231 7.68246C3.99037 7.62425 4.05934 7.57808 4.13527 7.54657C4.2112 7.51506 4.2926 7.49884 4.37481 7.49884C4.45702 7.49884 4.53842 7.51506 4.61435 7.54657C4.69029 7.57808 4.75926 7.62425 4.81731 7.68246ZM4.81731 12.6825C4.87552 12.7405 4.9217 12.8095 4.9532 12.8854C4.98471 12.9613 5.00093 13.0427 5.00093 13.125C5.00093 13.2072 4.98471 13.2886 4.9532 13.3645C4.9217 13.4404 4.87552 13.5094 4.81731 13.5675L2.94231 15.4425C2.88426 15.5007 2.81529 15.5468 2.73935 15.5783C2.66342 15.6099 2.58202 15.6261 2.49981 15.6261C2.4176 15.6261 2.3362 15.6099 2.26027 15.5783C2.18434 15.5468 2.11537 15.5007 2.05731 15.4425L1.43231 14.8175C1.31495 14.7001 1.24902 14.5409 1.24902 14.375C1.24902 14.209 1.31495 14.0498 1.43231 13.9325C1.54967 13.8151 1.70884 13.7492 1.87481 13.7492C2.04078 13.7492 2.19995 13.8151 2.31731 13.9325L2.49981 14.1162L3.93231 12.6825C3.99037 12.6243 4.05934 12.5781 4.13527 12.5466C4.2112 12.5151 4.2926 12.4988 4.37481 12.4988C4.45702 12.4988 4.53842 12.5151 4.61435 12.5466C4.69029 12.5781 4.75926 12.6243 4.81731 12.6825Z" fill="#979FA5"/>
</svg>
