<svg width="32" height="29" viewBox="0 0 32 29" fill="none" xmlns="http://www.w3.org/2000/svg">
<path d="M31.9248 9.54604C31.8906 9.47217 31.8492 9.40204 31.801 9.33674C31.7646 9.15571 31.7158 8.97749 31.655 8.80339C31.6475 8.78322 31.6401 8.76304 31.6302 8.74287L28.2227 0.756522C28.1263 0.531572 27.9676 0.340166 27.766 0.205783C27.5644 0.0713995 27.3286 -0.000118844 27.0877 1.48242e-07H4.80836C4.56743 -0.000118844 4.33169 0.0713995 4.13008 0.205783C3.92846 0.340166 3.76973 0.531572 3.67336 0.756522L0.244813 8.80213C-0.0816043 9.64602 -0.0816043 10.5846 0.244813 11.4285C0.560167 12.1629 1.01702 12.8253 1.58831 13.3765C2.15959 13.9277 2.83368 14.3565 3.57062 14.6374V27.7391C3.57062 28.0735 3.70103 28.3942 3.93315 28.6307C4.16527 28.8672 4.48009 29 4.80836 29H27.0877C27.416 29 27.7308 28.8672 27.9629 28.6307C28.195 28.3942 28.3254 28.0735 28.3254 27.7391V14.6374C29.0622 14.3568 29.7362 13.9285 30.3075 13.3777C30.8787 12.8269 31.3357 12.165 31.6513 11.431C31.7533 11.1658 31.8211 10.8882 31.853 10.6052C31.9356 10.4431 31.9845 10.2654 31.9969 10.0832C32.0092 9.90101 31.9847 9.71817 31.9248 9.54604ZM12.2348 26.4783V18.913H14.7103V26.4783H12.2348ZM17.1858 26.4783V18.913H19.6613V26.4783H17.1858ZM25.85 26.4783H22.1367V17.6522C22.1367 17.3178 22.0063 16.9971 21.7742 16.7606C21.5421 16.5241 21.2273 16.3913 20.899 16.3913H10.9971C10.6688 16.3913 10.354 16.5241 10.1219 16.7606C9.88973 16.9971 9.75933 17.3178 9.75933 17.6522V26.4783H6.0461V15.1304C6.98383 15.1424 7.9128 14.9455 8.768 14.5535C9.6232 14.1614 10.384 13.5838 10.9971 12.8609C11.6172 13.5754 12.3792 14.1475 13.2328 14.5394C14.0863 14.9313 15.0118 15.1339 15.948 15.1339C16.8842 15.1339 17.8098 14.9313 18.6633 14.5394C19.5169 14.1475 20.2789 13.5754 20.899 12.8609C21.5121 13.5838 22.2729 14.1614 23.1281 14.5535C23.9833 14.9455 24.9122 15.1424 25.85 15.1304V26.4783ZM29.3614 10.4652C29.0448 11.1322 28.5438 11.6904 27.92 12.0712C27.2961 12.452 26.5766 12.6388 25.85 12.6087C24.9491 12.6833 24.0554 12.3949 23.3611 11.8055C22.6667 11.2161 22.2271 10.3726 22.1367 9.45652C22.1367 9.12212 22.0063 8.80141 21.7742 8.56495C21.5421 8.32849 21.2273 8.19565 20.899 8.19565C20.5707 8.19565 20.2559 8.32849 20.0238 8.56495C19.7917 8.80141 19.6613 9.12212 19.6613 9.45652C19.5709 10.3726 19.1312 11.2161 18.4369 11.8055C17.7425 12.3949 16.8489 12.6833 15.948 12.6087C15.0472 12.6833 14.1535 12.3949 13.4592 11.8055C12.7648 11.2161 12.3252 10.3726 12.2348 9.45652C12.2348 9.12212 12.1044 8.80141 11.8723 8.56495C11.6402 8.32849 11.3253 8.19565 10.9971 8.19565C10.6688 8.19565 10.354 8.32849 10.1219 8.56495C9.88973 8.80141 9.75933 9.12212 9.75933 9.45652C9.66893 10.3726 9.22932 11.2161 8.53497 11.8055C7.84062 12.3949 6.94697 12.6833 6.0461 12.6087C5.31925 12.6389 4.59957 12.4522 3.97551 12.0714C3.35145 11.6906 2.85021 11.1323 2.5334 10.4652C2.45045 10.2327 2.45045 9.97781 2.5334 9.74526L5.62032 2.52174H26.2757L29.3416 9.7087C29.4374 9.95022 29.4445 10.2188 29.3614 10.4652Z" fill="#75839D"/>
</svg>
