<svg width="24" height="24" viewBox="0 0 24 24" fill="none" xmlns="http://www.w3.org/2000/svg">
<path d="M11.645 17.3579L11.644 17.3569L7.55398 13.2569L7.55346 13.2564C6.67346 12.3768 6.07407 11.256 5.8311 10.0358C5.58813 8.81558 5.7125 7.55071 6.18848 6.40117C6.66446 5.25163 7.47066 4.26907 8.50512 3.57777C9.53958 2.88647 10.7558 2.51749 12 2.51749C13.2442 2.51749 14.4604 2.88647 15.4949 3.57777C16.5293 4.26907 17.3355 5.25163 17.8115 6.40117C18.2875 7.55071 18.4119 8.81558 18.1689 10.0358C17.9259 11.256 17.3265 12.3768 16.4465 13.2563L16.446 13.2569L12.356 17.3569L12.355 17.3579C12.3085 17.4048 12.2532 17.442 12.1923 17.4673C12.1314 17.4927 12.066 17.5058 12 17.5058C11.934 17.5058 11.8686 17.4927 11.8077 17.4673C11.7468 17.442 11.6915 17.4048 11.645 17.3579ZM9.08557 4.37204L9.08557 4.37203L9.08369 4.37328C8.42469 4.81023 7.87159 5.38884 7.46478 6.06686C7.05819 6.74451 6.80799 7.50436 6.73241 8.29099C6.65381 9.07004 6.74979 9.85681 7.01339 10.5941C7.27706 11.3316 7.7018 12.0011 8.25672 12.5538C8.25688 12.554 8.25704 12.5541 8.25719 12.5543L11.6464 15.9436L12 16.2971L12.3536 15.9436L15.7436 12.5536L15.7447 12.5524C16.2987 11.9947 16.7222 11.3212 16.9848 10.5803C17.2473 9.83937 17.3425 9.04949 17.2633 8.26743C17.1842 7.48537 16.9327 6.73057 16.527 6.05731C16.1213 5.38405 15.5714 4.80906 14.9169 4.37369L14.9169 4.37369L14.9144 4.37204C14.0487 3.80361 13.0357 3.50076 12 3.50076C10.9643 3.50076 9.95129 3.80361 9.08557 4.37204ZM12.8334 10.0472C12.5867 10.212 12.2967 10.3 12 10.3C11.6022 10.3 11.2206 10.142 10.9393 9.86066C10.658 9.57935 10.5 9.19782 10.5 8.8C10.5 8.50332 10.588 8.21332 10.7528 7.96664C10.9176 7.71997 11.1519 7.52771 11.426 7.41418C11.7001 7.30065 12.0017 7.27094 12.2926 7.32882C12.5836 7.3867 12.8509 7.52956 13.0607 7.73934C13.2704 7.94912 13.4133 8.21639 13.4712 8.50736C13.5291 8.79833 13.4994 9.09993 13.3858 9.37402C13.2723 9.64811 13.08 9.88238 12.8334 10.0472ZM4.64645 20.6464C4.74021 20.5527 4.86739 20.5 5 20.5H19C19.1326 20.5 19.2598 20.5527 19.3536 20.6464C19.4473 20.7402 19.5 20.8674 19.5 21C19.5 21.1326 19.4473 21.2598 19.3536 21.3535C19.2598 21.4473 19.1326 21.5 19 21.5H5C4.86739 21.5 4.74021 21.4473 4.64645 21.3535C4.55268 21.2598 4.5 21.1326 4.5 21C4.5 20.8674 4.55268 20.7402 4.64645 20.6464Z" stroke="#424C5D"/>
</svg>
