<svg width="24" height="24" viewBox="0 0 24 24" fill="none" xmlns="http://www.w3.org/2000/svg">
<path d="M20.2471 10.0772L20.2489 10.0782L21.2449 10.6259C21.2454 10.6262 21.246 10.6266 21.2465 10.6269C21.323 10.6703 21.3867 10.7331 21.4312 10.8089C21.476 10.8854 21.4997 10.9723 21.4999 11.0609V14.5001C21.4999 14.6327 21.4472 14.7599 21.3534 14.8536C21.2597 14.9474 21.1325 15.0001 20.9999 15.0001C20.8673 15.0001 20.7401 14.9474 20.6463 14.8536C20.5526 14.7599 20.4999 14.6327 20.4999 14.5001V11.6401V10.787L19.7556 11.2038L17.7556 12.3238L17.4999 12.467V12.7601V17.5001C17.4999 18.1631 17.2365 18.799 16.7676 19.2678C16.2988 19.7367 15.6629 20.0001 14.9999 20.0001H6.99988C6.33684 20.0001 5.70095 19.7367 5.23211 19.2678C4.76327 18.799 4.49988 18.1631 4.49988 17.5001V12.7601V12.4655L4.24225 12.3228L1.75468 10.9441C1.6785 10.9005 1.61512 10.8377 1.57092 10.7618C1.52639 10.6854 1.50293 10.5985 1.50293 10.5101C1.50293 10.4216 1.52639 10.3348 1.57092 10.2583C1.61515 10.1824 1.6786 10.1195 1.75487 10.076L10.6394 5.14008H10.7162L10.8057 5.10426C10.8292 5.09484 10.8533 5.08677 10.8777 5.08008H10.9999H11.1282C11.1475 5.08589 11.1666 5.09274 11.1852 5.10061L11.2785 5.14008H11.3603L20.2471 10.0772ZM6.24229 13.4328L5.49988 13.0212V13.8701V17.5001C5.49988 17.8979 5.65791 18.2794 5.93922 18.5607C6.22052 18.842 6.60205 19.0001 6.99988 19.0001H14.9999C15.3977 19.0001 15.7792 18.842 16.0605 18.5607C16.3418 18.2794 16.4999 17.8979 16.4999 17.5001V13.8701V13.0212L15.7575 13.4328L11.2523 15.9301H11.2499H11.2185L11.1874 15.934C11.1459 15.9392 11.1039 15.9392 11.0624 15.934L10.9999 15.9261L10.9374 15.934C10.8959 15.9392 10.8539 15.9392 10.8124 15.934L10.7813 15.9301H10.7562L10.7248 15.9175L6.24229 13.4328ZM10.7568 14.797L10.9999 14.9322L11.2429 14.797L18.1829 10.937L18.9685 10.5001L18.1829 10.0631L11.2429 6.20312L10.9999 6.06794L10.7568 6.20312L3.81684 10.0631L3.03122 10.5001L3.81684 10.937L10.7568 14.797Z" stroke="#424C5D"/>
</svg>
