<svg width="21" height="23" viewBox="0 0 21 23" fill="none" xmlns="http://www.w3.org/2000/svg">
<path d="M18.871 15.2484L20.5332 18.8881C20.6769 19.2035 20.7182 19.5357 20.6531 19.8508C20.5879 20.1659 20.4186 20.4525 20.1624 20.6815C19.9062 20.9105 19.5723 21.0737 19.1948 21.1542C18.8173 21.2348 18.4097 21.2299 18.0137 21.1401L14.8486 20.4063C14.5388 21.3665 13.768 22.153 12.6981 22.6008C11.6281 23.0485 10.3421 23.1226 9.11 22.8076C7.86496 22.5482 6.74283 21.9157 5.97908 21.0428C5.21533 20.1699 4.86935 19.1245 5.01372 18.1259L1.84868 17.392C1.45353 17.2983 1.08539 17.1233 0.781856 16.8848C0.478324 16.6464 0.250274 16.3529 0.120995 16.0346C-0.00828376 15.7162 -0.0341604 15.3842 0.0460091 15.0726C0.126178 14.761 0.309521 14.4809 0.577313 14.2609L3.67163 11.7242L4.68659 7.34683C4.87188 6.16333 5.47358 5.08145 6.42213 4.22625C7.37067 3.37106 8.62733 2.77747 10.0468 2.51411C10.062 2.32918 10.1038 2.14853 10.1716 1.9758C10.2692 1.61806 10.4551 1.28682 10.7187 1.001C10.9824 0.715187 11.3185 0.480407 11.708 0.310082C12.0975 0.139757 12.5327 0.0372276 12.9886 0.00835411C13.4446 -0.0205194 13.9125 0.0248294 14.3655 0.141808C14.8237 0.236115 15.2638 0.401288 15.6606 0.627885C16.0573 0.854482 16.403 1.13806 16.6777 1.46241C16.9525 1.78676 17.1511 2.14552 17.262 2.51818C17.3729 2.89084 17.3941 3.2701 17.3243 3.63427C17.3003 3.81752 17.2586 3.9975 17.1995 4.17259C18.3582 5.03375 19.2254 6.1198 19.7008 7.30517C20.1762 8.49053 20.2404 9.72682 19.886 10.8711L18.871 15.2484Z" fill="black"/>
</svg>
