<svg width="24" height="24" viewBox="0 0 24 24" fill="none" xmlns="http://www.w3.org/2000/svg">
<path d="M11.9996 12C14.7996 12 16.9996 9.8 16.9996 7C16.9996 4.2 14.7996 2 11.9996 2C9.19961 2 6.99961 4.2 6.99961 7C6.99961 9.8 9.19961 12 11.9996 12ZM21.2996 20.8C19.9996 15.7 14.7996 12.5 9.69961 13.8C6.29961 14.7 3.59961 17.3 2.69961 20.8C2.59961 21.3 2.89961 21.9 3.49961 22C3.59961 22 3.69961 22 3.69961 22H20.2996C20.8996 22 21.2996 21.6 21.2996 21C21.2996 20.9 21.2996 20.8 21.2996 20.8Z" fill="#D9D9D9"/>
</svg>
