<svg width="24" height="24" viewBox="0 0 24 24" fill="none" xmlns="http://www.w3.org/2000/svg">
<path d="M16.0886 10.5016C16.716 10.5272 17.3123 10.7877 17.7579 11.2334C18.2267 11.7024 18.4904 12.338 18.4912 13.0011V13.9999C18.4898 15.1931 18.0152 16.337 17.1715 17.1807C16.3278 18.0245 15.1838 18.4991 13.9906 18.5005H9.9918C8.7986 18.4991 7.65467 18.0245 6.81095 17.1807C5.96732 16.3371 5.49272 15.1933 5.49121 14.0003C5.49121 14.0002 5.49121 14 5.49121 13.9999V10.0011C5.49121 10.0009 5.49121 10.0008 5.49121 10.0007C5.49272 8.80763 5.96732 7.66386 6.81095 6.82023C7.65458 5.9766 8.79835 5.50199 9.99141 5.50049C9.99154 5.50049 9.99167 5.50049 9.9918 5.50049H11.9907C11.9909 5.50049 11.991 5.50049 11.9912 5.50049C11.9912 5.50049 11.9912 5.50049 11.9912 5.50049C12.9191 5.50155 13.8088 5.87063 14.4649 6.52678C15.1212 7.18305 15.4903 8.07288 15.4912 9.00099V9.50049H14.9917H14.9912L14.9907 10.5005H14.9912L15.9907 10.5015L16.0886 10.5016ZM17.4912 14.001V14.0005V13.0005V13.0002C17.4909 12.6025 17.3329 12.2212 17.0517 11.94C16.7706 11.6589 16.3894 11.5008 15.9919 11.5005C15.594 11.5 15.2126 11.3417 14.9313 11.0604C14.65 10.7791 14.4917 10.3977 14.4912 9.99984V9.00049V8.99984C14.4904 8.33723 14.2268 7.70201 13.7582 7.23348C13.2897 6.76495 12.6545 6.50135 11.9919 6.50049H11.9912L9.99121 6.50049L9.99067 6.50049C9.06286 6.5015 8.17335 6.87052 7.5173 7.52657C6.86124 8.18263 6.49222 9.07214 6.49121 9.99994V10.0005L6.49121 14.0005L6.49121 14.001C6.49222 14.9288 6.86124 15.8183 7.5173 16.4744C8.17335 17.1305 9.06286 17.4995 9.99067 17.5005H9.99121H13.9912H13.9918C14.9196 17.4995 15.8091 17.1305 16.4651 16.4744C17.1212 15.8183 17.4902 14.9288 17.4912 14.001ZM21.4912 20.0008V20.0005V4.00049V4.00015C21.4909 3.6025 21.3329 3.22121 21.0517 2.94002C20.7705 2.65884 20.3892 2.50075 19.9915 2.50049H19.9912L3.99121 2.50049L3.99088 2.50049C3.59322 2.50075 3.21193 2.65884 2.93075 2.94002C2.64956 3.22121 2.49148 3.6025 2.49121 4.00015V4.00049L2.49121 20.0005L2.49121 20.0008C2.49148 20.3985 2.64956 20.7798 2.93075 21.061C3.21193 21.3421 3.59322 21.5002 3.99088 21.5005H3.99121H19.9912H19.9915C20.3892 21.5002 20.7705 21.3421 21.0517 21.061C21.3329 20.7798 21.4909 20.3985 21.4912 20.0008ZM9.63766 13.6469C9.73143 13.5532 9.8586 13.5005 9.99121 13.5005H13.9912C14.1238 13.5005 14.251 13.5532 14.3448 13.6469C14.4385 13.7407 14.4912 13.8679 14.4912 14.0005C14.4912 14.1331 14.4385 14.2603 14.3448 14.354C14.251 14.4478 14.1238 14.5005 13.9912 14.5005H9.99121C9.8586 14.5005 9.73143 14.4478 9.63766 14.354C9.54389 14.2603 9.49121 14.1331 9.49121 14.0005C9.49121 13.8679 9.54389 13.7407 9.63766 13.6469ZM10.9912 10.5005H9.99121C9.8586 10.5005 9.73143 10.4478 9.63766 10.354C9.54389 10.2603 9.49121 10.1331 9.49121 10.0005C9.49121 9.86788 9.54389 9.7407 9.63766 9.64694C9.73143 9.55317 9.8586 9.50049 9.99121 9.50049H10.9912C11.1238 9.50049 11.251 9.55317 11.3448 9.64694C11.4385 9.7407 11.4912 9.86788 11.4912 10.0005C11.4912 10.1331 11.4385 10.2603 11.3448 10.354C11.251 10.4478 11.1238 10.5005 10.9912 10.5005ZM3.9915 1.50049H19.9909C20.6538 1.50128 21.2893 1.76495 21.758 2.23368C22.2268 2.70247 22.4905 3.33807 22.4912 4.00103V19.9999C22.4905 20.6629 22.2268 21.2985 21.758 21.7673C21.2892 22.2361 20.6536 22.4998 19.9907 22.5005H3.99176C3.32879 22.4998 2.69319 22.2361 2.2244 21.7673C1.75568 21.2986 1.492 20.6631 1.49121 20.0002V4.00077C1.492 3.3379 1.75568 2.70241 2.2244 2.23368C2.69313 1.76496 3.32863 1.50128 3.9915 1.50049Z" fill="#0061FF" stroke="#0061FF"/>
</svg>
