<svg width="23" height="19" viewBox="0 0 23 19" fill="none" xmlns="http://www.w3.org/2000/svg">
<path d="M8.81281 11.1618C3.62925 11.7853 2.54316 15.9535 2.54316 17.4168H1.05962C1.05962 17.4168 0 17.4168 0 16.0974C0 14.7779 1.05962 10.8195 6.3579 10.8195C7.30584 10.8195 8.11804 10.9462 8.81281 11.1618Z" fill="#75839D"/>
<path d="M7.22574 1.73369C6.6671 2.5799 6.3579 3.64513 6.3579 4.75004C6.3579 6.00984 6.75985 7.21803 7.47519 8.10883C7.6866 8.37205 7.92021 8.60121 8.17066 8.79342C7.64205 9.25036 7.0103 9.50008 6.3579 9.50008C5.51481 9.50008 4.70618 9.08303 4.11005 8.34069C3.51384 7.59835 3.17895 6.59154 3.17895 5.54171C3.17895 4.49189 3.51384 3.48507 4.11005 2.74273C4.70618 2.0004 5.51481 1.58335 6.3579 1.58335C6.65398 1.58335 6.94588 1.63478 7.22574 1.73369Z" fill="#75839D"/>
<path d="M13.9874 11.1619C19.1709 11.7854 20.257 15.9535 20.257 17.4168H21.7405C21.7405 17.4168 22.8002 17.4168 22.8002 16.0974C22.8002 14.7779 21.7405 10.8195 16.4423 10.8195C15.4944 10.8195 14.6821 10.9462 13.9874 11.1619Z" fill="#75839D"/>
<path d="M15.5745 1.73369C16.1331 2.57991 16.4423 3.64513 16.4423 4.75004C16.4423 6.00983 16.0404 7.21802 15.325 8.10882C15.1136 8.37206 14.8799 8.60121 14.6295 8.79343C15.1581 9.25036 15.7899 9.50008 16.4423 9.50008C17.2854 9.50008 18.094 9.08304 18.6901 8.3407C19.2863 7.59836 19.6212 6.59154 19.6212 5.54171C19.6212 4.49189 19.2863 3.48506 18.6901 2.74273C18.094 2.00039 17.2854 1.58335 16.4423 1.58335C16.1462 1.58335 15.8543 1.63479 15.5745 1.73369Z" fill="#75839D"/>
<path d="M5.08632 19.0002C5.08632 19.0002 3.81474 19.0002 3.81474 17.4168C3.81474 15.8335 5.08632 11.0834 11.4442 11.0834C17.8021 11.0834 19.0737 15.8335 19.0737 17.4168C19.0737 19.0002 17.8021 19.0002 17.8021 19.0002H5.08632ZM11.4442 9.50008C12.4559 9.50008 13.4262 8.99963 14.1416 8.10882C14.857 7.21802 15.259 6.00983 15.259 4.75004C15.259 3.49025 14.857 2.28206 14.1416 1.39125C13.4262 0.500449 12.4559 0 11.4442 0C10.4325 0 9.46219 0.500449 8.74679 1.39125C8.03139 2.28206 7.62948 3.49025 7.62948 4.75004C7.62948 6.00983 8.03139 7.21802 8.74679 8.10882C9.46219 8.99963 10.4325 9.50008 11.4442 9.50008Z" fill="#75839D"/>
</svg>
